<?xml version="1.0" encoding="UTF-8"?>
<!DOCTYPE svg  PUBLIC '-//W3C//DTD SVG 1.1//EN'  'http://www.w3.org/Graphics/SVG/1.1/DTD/svg11.dtd'>
<svg width="595.28px" height="147.05px" enable-background="new 0 347.422 595.279 147.047" version="1.1" viewBox="0 347.42 595.28 147.05" xml:space="preserve" xmlns="http://www.w3.org/2000/svg">

	
		
			
				
					<radialGradient id="af" cx="419.59" cy="243.48" r="578.16" gradientTransform="matrix(.3855 0 0 -.3855 -8.2737 519.64)" gradientUnits="userSpaceOnUse">
					<stop stop-color="#C0296A" offset=".0056"/>
					<stop stop-color="#AF0759" offset=".9944"/>
				</radialGradient>
				<path d="m116.55 421.37c-2.545 0.077-3.277-1.427-3.393-2.622-0.077-1.041 0.077-2.235 0.655-3.547-4.974-1.311-10.603-2.892-16.617-4.703-1.581 0.925-3.277 1.773-4.511 1.58-0.386-0.077-0.655-0.385 0.27-1.58 0.077-0.193 0.386-0.578 0.732-1.041-4.317-1.427-8.905-2.892-13.609-4.511-9.215 8.443-19.701 16.81-25.522 16.81-2.353 0-4.512-1.504-4.512-5.243 0-2.43 3.2-10.41 9.562-19.316-4.78-1.966-9.677-4.048-14.65-6.4-11.258 12.029-16.501 22.902-16.501 30.613 0 9.869 9.214 11.064 14.072 11.064 12.762 0 18.391-5.898 20.935-5.898 2.545 0-1.503 6.015-5.243 8.366-31.537 19.046-57.523 35.47-57.523 50.66 0 6.863 6.4 7.325 11.182 7.325 4.896 0 28.453-3.007 64.578-59.026 1.696-2.622 4.511-4.125 7.133-6.092 2.621-1.889 11.258-8.251 13.031-8.251 1.696 0 1.696 0.733 1.581 1.504-0.077 1.118-1.234 3.547-1.234 6.478 0 3.007 3.008 6.477 7.981 6.477 10.987 0 18.969-7.788 25.639-14.92-2.159-0.463-4.704-1.041-7.403-1.696-2.777 2.273-5.322 3.969-6.633 3.969zm-97.504 60.993c-2.159 0-3.2-1.233-3.2-3.2 0-6.747 23.479-24.482 26.179-24.482 0.732 0 0.925 0.271 0.925 0.849 0.039 5.359-17.042 26.833-23.904 26.833zm124.92-60.338c0 4.704 1.581 11.451 12.568 11.451 6.092 0 11.644-3.277 16.425-7.981-9.215-0.732-18.854-1.966-28.916-3.855-0.077 0.116-0.077 0.308-0.077 0.385zm80.617 2.082c0 3.933 0.926 10.333 7.711 10.333 13.225 0 29.764-16.811 30.612-17.003 0.578-0.077 0.655 0.192 0.655 0.655 0 0.578-1.889 7.21-21.32 30.767s-28.8 32.771-28.8 37.899c0 5.051 4.317 6.939 6.284 6.939 1.966 0 10.525-0.463 30.689-33.311 14.342-23.364 21.204-37.822 28.8-49.466-13.802 6.132-31.151 9.987-54.631 13.187zm-39.788 2.044c-1.427 2.158-2.622 4.588-3.47 5.898 0 0-1.041 1.773 0.463 1.773h14.342c0.578 0 1.233-1.118 1.773-1.773 0.193-0.27 1.696-2.814 3.547-5.629-5.397 0.116-10.949-0.076-16.655-0.269z" fill="url(#af)"/>
				
					<radialGradient id="u" cx="477.06" cy="319.2" r="245.51" gradientTransform="matrix(.3855 0 0 -.3855 -8.2737 519.64)" gradientUnits="userSpaceOnUse">
					<stop stop-color="#4BB6E8" offset=".0647"/>
					<stop stop-color="#42ACE1" offset=".2673"/>
					<stop stop-color="#2C92D0" offset=".6519"/>
					<stop stop-color="#0B7AC0" offset="1"/>
				</radialGradient>
				<path d="m292.82 376.8c0-3.277 6.67-10.024 9.678-10.024 2.159 0 3.662 2.352 3.662 4.396 0 5.706-6.399 9.87-8.366 9.87-1.234-0.116-4.974-1.813-4.974-4.242zm-189.03 28.068c4.896 0.925 9.87 1.889 14.921 2.544-2.236 2.622-3.933 5.359-4.896 7.788-4.974-1.311-10.603-2.892-16.617-4.703 1.967-1.234 3.74-2.737 4.511-3.47 0.694-0.771 1.349-1.426 2.081-2.159zm193.7-18.121c0 1.427-1.503 4.511-7.518 10.333-3.2 3.084-7.711 9.291-10.796 13.995-13.802 6.015-31.151 9.947-54.631 13.147 0-0.463 0-0.926 0.077-1.312 0.192-3.007 1.311-5.051 1.311-6.015 0-0.462-0.077-1.041-0.655-1.041-0.655 0-3.008 1.234-5.359 1.234-8.443 0-5.629-5.706-7.865-5.706-0.578 0-1.233 0.386-1.58 1.041-0.271 0.386-5.359 8.25-9.022 13.802-5.358 0.193-10.872 0.193-16.616 0 3.932-6.014 9.368-14.457 12.761-21.127 10.41-2.082 20.742-4.974 30.883-8.637 0 0.463-0.077 0.926-0.077 1.504 0 4.896 1.503 7.402 2.814 7.402 1.233 0 2.892-1.311 4.511-3.084 13.995-16.694 25.253-18.583 29.263-18.583 2.814 0 3.855 2.352 3.855 4.511 0 8.25-14.535 20.357-23.827 23.094-2.544 0.732-3.855 2.352-3.855 4.048 0 2.352 1.118 4.588 4.781 4.588 9.87 0 20.819-13.224 29.841-23.094 9.099-9.87 16.348-13.417 18.506-13.417 2.196-0.268 3.198 1.505 3.198 3.317zm-51.123 17.157c0 0.655 0.578 1.118 1.234 1.118 2.892 0 11.913-8.251 11.913-11.721 0-0.463-0.578-0.849-1.041-0.849-3.123 1e-3 -12.106 8.753-12.106 11.452zm-115.62 4.897c3.199 0.27 6.477 0.462 9.754 0.655-3.085 1.966-6.4 5.706-10.024 9.677-2.159-0.463-4.703-1.041-7.402-1.696 3.16-2.738 6.437-6.208 7.672-8.636zm54.438-1.697c-2.814 6.399-7.056 13.224-12.184 18.39-9.214-0.732-18.853-1.966-28.916-3.855 0.077-4.317 1.774-10.409 2.159-12.105 5.437 0.077 10.873 0 16.425-0.271-1.967 3.008-3.394 6.092-3.277 8.251 0.077 1.773 1.233 2.737 3.084 2.737 5.899 0 10.796-5.821 14.266-12.106 2.698-0.193 5.512-0.579 8.443-1.041zm-137.68-18.969c4.703 1.773 9.677 3.663 14.843 5.436-0.925 1.118-1.773 2.352-2.544 3.47-4.781-1.966-9.678-4.048-14.65-6.4 0.655-0.809 1.503-1.658 2.351-2.506zm50.275 15.499c-1.773 2.43-3.276 4.511-4.125 5.706-4.318-1.426-8.906-2.892-13.609-4.511 1.58-1.503 3.199-2.892 4.703-4.395 4.241 1.118 8.636 2.159 13.031 3.2z" fill="url(#u)"/>
				
					<radialGradient id="r" cx="495.1" cy="299.15" r="311.56" gradientTransform="matrix(.3855 0 0 -.3855 -8.2737 519.64)" gradientUnits="userSpaceOnUse">
					<stop stop-color="#9BC057" offset=".0396"/>
					<stop stop-color="#8AB94F" offset=".2642"/>
					<stop stop-color="#74B146" offset=".6135"/>
					<stop stop-color="#6BAE44" offset=".8309"/>
				</radialGradient>
				<path d="m111.69 384.94c0-0.925-1.427-1.773-3.085-1.773-1.504 0-7.518 1.041-12.105 5.436-1.697 1.581-6.208 6.4-11.837 11.721 4.318 1.118 8.637 2.236 13.031 3.2 3.933-5.437 9.1-12.492 10.525-13.995 2.313-2.507 3.471-3.741 3.471-4.589zm12.645-20.896c0.578 0.077 0.732 0 0.925-0.385 0.386-0.579 8.174-14.458 8.174-14.458 0.077-0.193 0-0.386-0.077-0.463-0.192-0.077-1.581-0.578-4.396-0.578-11.759 0-37.358 5.822-63.19 24.598-7.21 5.244-13.34 10.41-18.313 15.499 4.704 1.773 9.678 3.663 14.844 5.436 2.814-3.547 6.015-7.132 9.754-10.603 14.535-13.417 31.422-19.971 41.87-19.971 4.434-0.116 9.677 0.809 10.409 0.925zm105.48 18.93c-3.933 0-11.643 9.369-12.954 9.369-1.118 0-2.429-4.318-3.662-6.015-1.89-2.429-4.396-3.084-11.644-3.084-3.663 0-5.706 0.27-8.906 0.27-3.663 0-4.511-0.193-5.243-1.773-0.655-1.581-11.451-30.034-36.049-30.034-5.437 0-11.258 2.429-11.258 9.754 0 7.402 4.396 17.542 22.979 23.75 0.463 0.193 0.925 0.193 0.925 0.578 0 0.733-8.713 12.685-16.693 14.072-0.926 0.193-1.504-0.655-1.504-1.503 0-0.849 1.233-3.277 1.233-7.133s-1.117-9.099-8.366-9.099c-6.939 0-14.843 3.277-34.93 22.631 4.896 0.926 9.869 1.89 14.92 2.545 6.208-7.596 15.77-14.998 18.198-15.113 1.503 0 2.082 0.578 2.159 1.233 0.192 2.622-3.663 4.511-6.015 6.284-2.737 1.967-3.663 2.622-3.393 4.318 0.192 0.926 1.503 1.118 1.696 2.814 0 0.463-0.193 1.118-0.578 1.773 3.199 0.271 6.477 0.463 9.754 0.655 1.427-0.848 2.737-1.426 4.125-1.426 1.118 0 1.581 0.462 1.581 1.233 0 0.077 0 0.192-0.077 0.386 5.437 0.077 10.872 0 16.424-0.271 2.892-4.511 6.863-8.828 8.714-9.946 3.2-1.967 4.896-3.856 4.896-4.896 0-1.041-2.236-2.545-2.545-3.547-0.27-1.234 0.732-1.889 2.892-1.311 3.2 0.848 5.437 0.925 5.552 3.2 0.077 1.889-1.966 9.021-5.552 15.499 2.814-0.27 5.706-0.655 8.559-1.118 2.738-6.092 4.241-11.644 4.241-14.728 0-0.656 0.193-1.504 1.427-1.504s4.704 0.386 6.207 0.579c1.696 0.192 3.855 1.503 3.855 4.588 0 1.966-1.311 5.167-3.2 8.906 10.41-2.082 20.742-4.974 30.883-8.636 0.462-6.478 3.662-9.215 3.662-11.374 0.039-1.348-0.616-1.926-2.313-1.926zm-51.239 0.501c-5.437 0-26.179-8.058-26.179-18.391 0-3.277 2.236-5.166 5.359-5.166 14.92 0 22.323 21.205 22.323 22.516-0.076 0.655-0.462 1.041-1.503 1.041z" fill="url(#r)"/>
			
			<path d="m101.09 406.45c-1.118 1.041-3.008 2.622-4.896 3.663 0.578 0.192 1.233 0.386 1.773 0.578 2.159-1.504 4.048-3.2 4.048-3.2 0.849-0.848 1.696-1.696 2.545-2.429-0.578-0.077-1.118-0.192-1.696-0.386-0.58 0.656-1.119 1.196-1.774 1.774z" fill="#4BB6E8"/>
			
				<linearGradient id="q" x1="569.48" x2="591.31" y1="260.94" y2="242.62" gradientTransform="matrix(.3855 0 0 -.3855 -8.2737 519.64)" gradientUnits="userSpaceOnUse">
				<stop stop-color="#3983C5" offset="0"/>
				<stop stop-color="#3F96D2" offset=".3261"/>
				<stop stop-color="#47ADE2" offset=".7651"/>
				<stop stop-color="#4BB6E8" offset="1"/>
			</linearGradient>
			<path d="m225.31 415.08c-0.27 0-0.732 0.192-1.426 0.386-0.926 0.385-2.43 0.848-3.933 0.848-5.051 0-5.553-2.082-6.015-3.662-0.271-0.926-0.578-2.082-1.89-2.082-0.848 0-1.696 0.462-2.236 1.311l-3.084 4.781c-1.773 2.737-4.241 6.477-6.207 9.484 0.578 0 1.118 0 1.696-0.077 1.581-2.43 3.547-5.553 5.629-8.637l3.084-4.78c0.271-0.386 0.656-0.732 1.041-0.732 0.193 0 0.271 0.076 0.578 1.04 0.463 1.774 1.312 4.704 7.403 4.704 1.696 0 3.276-0.578 4.395-0.926 0.386-0.076 0.732-0.27 0.849-0.27v0.27c0 0.271-0.193 0.733-0.386 1.312-0.386 1.118-0.848 2.737-1.041 4.588 0 0.463 0 0.925-0.077 1.504 0.463-0.077 0.926-0.077 1.427-0.193v-1.233c0.077-1.773 0.578-3.2 0.925-4.318 0.271-0.732 0.463-1.311 0.463-1.773 0.232-1.353-0.809-1.545-1.195-1.545z" fill="url(#q)"/>
			
				<linearGradient id="p" x1="469.66" x2="443.8" y1="266.33" y2="281.71" gradientTransform="matrix(.3855 0 0 -.3855 -8.2737 519.64)" gradientUnits="userSpaceOnUse">
				<stop stop-color="#75C1EC" offset="0"/>
				<stop stop-color="#6DBAE7" offset=".1722"/>
				<stop stop-color="#59A7DC" offset=".4502"/>
				<stop stop-color="#348BCA" offset=".7973"/>
				<stop stop-color="#0B7AC0" offset="1"/>
			</linearGradient>
			<path d="m175.69 408.34c-1.427 2.545-3.085 4.974-5.051 7.056-2.737 2.814-5.552 4.317-8.366 4.317-0.849 0-2.236-0.27-2.352-2.082-0.077-2.081 1.503-5.243 3.47-8.25-0.578 0-1.118 0.077-1.773 0.077-1.89 3.007-3.2 6.092-3.2 8.25 0.077 2.159 1.504 3.471 3.739 3.471 3.2 0 6.4-1.581 9.369-4.704 2.236-2.236 4.125-5.166 5.706-8.174-0.347-0.077-0.887-0.077-1.542 0.039z" fill="url(#p)"/>
			<path d="m113.08 414.97c0.463 0.077 0.925 0.271 1.427 0.386 0.848-2.159 2.544-4.896 5.05-7.788-0.578-0.077-1.118-0.192-1.696-0.192-1.966 2.351-3.817 5.088-4.781 7.594z" fill="#0B7AC0"/>
			<path d="m79.307 404.48c0.462 0.192 1.04 0.386 1.503 0.578 1.581-1.427 3.2-2.892 4.704-4.396-0.578-0.077-1.041-0.27-1.581-0.462-1.542 1.35-3.046 2.854-4.626 4.28z" fill="#4BB6E8"/>
			<path d="m129.97 408.68c-0.463 0.849-1.311 2.082-2.622 3.547-1.58 1.773-3.47 3.547-5.166 4.974 0.578 0.193 1.118 0.271 1.696 0.386 1.696-1.504 3.393-3.084 4.511-4.396 1.504-1.696 2.545-3.199 3.085-4.317-0.463-0.078-0.926-0.194-1.504-0.194z" fill="#4BB6E8"/>
			<path d="m131.47 416.97c-0.579 0.655-1.234 1.312-1.773 1.967 0.578 0.077 1.117 0.27 1.58 0.386 0.386-0.463 0.849-0.849 1.234-1.312 3.393-3.739 6.477-7.056 9.368-8.443-0.848 0-1.696-0.077-2.545-0.077-2.506 1.657-5.05 4.472-7.864 7.479z" fill="#3983C5"/>
			<path d="m59.027 396.77c0.463 0.192 0.926 0.386 1.312 0.578 0.848-1.118 1.696-2.352 2.621-3.47-0.463-0.193-0.925-0.27-1.427-0.463-0.81 1.003-1.735 2.237-2.506 3.355z" fill="#0B6FAB"/>
			
				<linearGradient id="o" x1="645.11" x2="720.6" y1="304.34" y2="304.34" gradientTransform="matrix(.3855 0 0 -.3855 -8.2737 519.64)" gradientUnits="userSpaceOnUse">
				<stop stop-color="#0B6FAB" offset="0"/>
				<stop stop-color="#076AA1" offset="1"/>
			</linearGradient>
			<path d="m241.85 415.82c0-3.007 1.233-2.622 3.393-3.277 9.215-2.737 24.405-14.728 24.405-23.75h-1.427c0 6.015-14.535 19.817-23.364 22.323-2.737 0.849-4.317 1.581-4.317 4.588h1.311v0.116h-1e-3z" fill="url(#o)"/>
			
				<linearGradient id="n" x1="640.33" x2="619.56" y1="310.33" y2="307.67" gradientTransform="matrix(.3855 0 0 -.3855 -8.2737 519.64)" gradientUnits="userSpaceOnUse">
				<stop stop-color="#4BB6E8" offset="0"/>
				<stop stop-color="#46B0E4" offset=".1791"/>
				<stop stop-color="#389FD9" offset=".4682"/>
				<stop stop-color="#1F86C8" offset=".8294"/>
				<stop stop-color="#0B7AC0" offset="1"/>
			</linearGradient>
			<path d="m240.93 395.46c-1.89 1.774-3.74 3.856-5.706 6.208-1.504 1.773-3.008 2.892-3.933 2.892-0.732 0-2.159-1.967-2.159-6.67 0-0.655 0-1.234 0.077-1.773-0.463 0.192-0.926 0.385-1.427 0.578v1.233c0 5.552 1.89 8.059 3.547 8.059 1.89 0 3.933-2.159 5.051-3.394 1.773-2.158 3.47-4.048 5.166-5.629l-0.616-1.504z" fill="url(#n)"/>
			
				<linearGradient id="m" x1="699.33" x2="712.13" y1="334.28" y2="333.22" gradientTransform="matrix(.3855 0 0 -.3855 -8.2737 519.64)" gradientUnits="userSpaceOnUse">
				<stop stop-color="#4BB6E8" offset="0"/>
				<stop stop-color="#48AFE0" offset=".1482"/>
				<stop stop-color="#3D9ED0" offset=".3876"/>
				<stop stop-color="#2A85B9" offset=".6883"/>
				<stop stop-color="#076AA1" offset="1"/>
			</linearGradient>
			<path d="m241.58 396.89c11.721-11.644 20.742-12.183 23.557-12.183 3.007 0 3.084 1.233 3.084 4.241h1.427c0-3.007-1.427-5.629-4.511-5.629-3.663 0-12.569 1.118-24.135 12.492l0.578 1.079z" fill="url(#m)"/>
			
				<linearGradient id="l" x1="680.54" x2="674.07" y1="309.95" y2="318.03" gradientTransform="matrix(.3855 0 0 -.3855 -8.2737 519.64)" gradientUnits="userSpaceOnUse">
				<stop stop-color="#45A3CE" offset="0"/>
				<stop stop-color="#409DCA" offset=".19"/>
				<stop stop-color="#338DBF" offset=".4968"/>
				<stop stop-color="#1976B0" offset=".88"/>
				<stop stop-color="#0B6FAB" offset="1"/>
			</linearGradient>
			<path d="m260.16 393.3c0-0.925-0.926-1.581-1.696-1.581-3.393 0-12.839 9.021-12.839 12.106 0 1.118 0.926 1.773 1.89 1.773 3.353 0.078 12.645-8.366 12.645-12.298zm-13.147 10.602c0-2.43 8.829-10.68 11.374-10.68 0.077 0 0.27 0.077 0.27 0.192 0 3.007-8.713 10.988-11.258 10.988-0.116-0.115-0.386-0.23-0.386-0.5z" fill="url(#l)"/>
			
				<linearGradient id="ap" x1="794.29" x2="803.89" y1="380.57" y2="376.58" gradientTransform="matrix(.3855 0 0 -.3855 -8.2737 519.64)" gradientUnits="userSpaceOnUse">
				<stop stop-color="#4BB6E8" offset="0"/>
				<stop stop-color="#48AFE0" offset=".1382"/>
				<stop stop-color="#3E9ECE" offset=".3614"/>
				<stop stop-color="#2D84B6" offset=".6418"/>
				<stop stop-color="#0B669A" offset=".9656"/>
				<stop stop-color="#036398" offset="1"/>
			</linearGradient>
			<path d="m302.58 366c-3.471 0-10.41 7.133-10.41 10.795 0 2.892 4.048 4.896 5.706 4.896 2.159 0 9.021-4.396 9.021-10.603 1e-3 -2.466-1.773-5.088-4.317-5.088zm-4.781 14.265c-1.041 0-4.318-1.581-4.318-3.47 0-2.814 6.285-9.369 9.022-9.369 1.696 0 2.892 1.966 2.892 3.663 0.077 5.243-6.015 9.176-7.596 9.176z" fill="url(#ap)"/>
			<path d="m183.94 426.07c0.578 0 1.117 0 1.696 0.077 4.048-6.092 9.484-14.651 12.838-21.398-0.578 0.077-1.118 0.271-1.773 0.386-3.548 6.862-9.099 15.383-12.761 20.935z" fill="#62BBEA"/>
			<path d="m44.376 390.29c0.463 0.193 0.925 0.385 1.311 0.655 0.732-0.848 1.581-1.696 2.429-2.544-0.462-0.193-0.925-0.386-1.426-0.579-0.81 0.887-1.542 1.736-2.314 2.468z" fill="#4BB6E8"/>
			<path d="m97.041 403.44c-1.773 2.429-3.277 4.511-4.125 5.629 0.463 0.192 0.925 0.27 1.427 0.463 0.925-1.312 2.429-3.393 4.24-5.822-0.501-0.077-1.079-0.192-1.542-0.27z" fill="#1574B0"/>
			<path d="m145.08 411.04c-0.578 2.545-1.696 7.056-1.773 10.525 0.463 0.077 0.925 0.193 1.427 0.271 0-3.277 1.118-7.865 1.773-10.41 0.192-0.925 0.386-1.426 0.386-1.773h-1.427c-0.077 0.27-0.27 0.848-0.386 1.387z" fill="#4BB6E8"/>
			<path d="m184.33 407.3c-1.311 2.892-2.892 5.898-4.78 8.829-1.773 2.737-4.318 6.284-7.519 9.368 0.578 0.077 1.234 0.077 1.773 0.193 5.051-5.244 9.292-12.184 12.106-18.583-0.539 0-1.04 0.078-1.58 0.193z" fill="#3983C5"/>
			
				<linearGradient id="ao" x1="777.99" x2="746.87" y1="336.98" y2="319.43" gradientTransform="matrix(.3855 0 0 -.3855 -8.2737 519.64)" gradientUnits="userSpaceOnUse">
				<stop stop-color="#4BB6E8" offset="0"/>
				<stop stop-color="#47B0E1" offset=".155"/>
				<stop stop-color="#3C9FD3" offset=".4051"/>
				<stop stop-color="#2986BE" offset=".7173"/>
				<stop stop-color="#0B6FAB" offset="1"/>
			</linearGradient>
			<path d="m240.42 415.82c0 3.007 1.696 4.588 4.704 4.896 3.084 0.077 5.051-0.655 8.366-2.352 6.862-3.663 13.687-11.258 19.971-18.198l2.622-3.084c9.099-9.87 17.735-13.225 17.735-13.225v-1.426c-3.008 0-9.678 3.74-18.776 13.61l-2.737 3.084c-8.443 9.292-17.928 20.164-26.448 20.164-3.393 0-4.048-3.547-4.048-3.547h-1.427l0.038 0.078z" fill="url(#ao)"/>
			
				<linearGradient id="an" x1="756.91" x2="760.4" y1="332" y2="326.77" gradientTransform="matrix(.3855 0 0 -.3855 -8.2737 519.64)" gradientUnits="userSpaceOnUse">
				<stop stop-color="#4BB6E8" offset="0"/>
				<stop stop-color="#42A4D4" offset=".1537"/>
				<stop stop-color="#287EB0" offset=".5497"/>
				<stop stop-color="#126A9E" offset=".8433"/>
				<stop stop-color="#036398" offset="1"/>
			</linearGradient>
			<path d="m293.82 383.93c3.007 0 2.737 1.427 2.737 2.814 0 0.656-0.386 3.2-7.21 9.754-3.393 3.277-8.058 9.87-11.373 14.92 0.848-0.386 1.58-0.655 2.429-1.041 2.814-4.24 7.133-10.023 10.023-12.954 5.051-4.974 7.519-8.713 7.519-10.795s-1.118-4.241-4.125-4.241v1.543z" fill="url(#an)"/>
			
				<linearGradient id="am" x1="312.98" x2="342.81" y1="262.24" y2="262.24" gradientTransform="matrix(.3855 0 0 -.3855 -8.2737 519.64)" gradientUnits="userSpaceOnUse">
				<stop stop-color="#AF0759" offset="0"/>
				<stop stop-color="#BB2F67" offset=".2495"/>
				<stop stop-color="#CE5880" offset=".7381"/>
				<stop stop-color="#D8688D" offset="1"/>
			</linearGradient>
			<path d="m116.47 420.6c-1.696 0.077-2.545-0.655-2.622-1.966-0.077-0.926 0.077-2.082 0.656-3.277-0.463-0.077-0.926-0.192-1.427-0.386-0.463 1.312-0.732 2.622-0.655 3.74 0.192 2.159 1.696 3.393 4.125 3.393 1.773-0.077 4.704-2.082 7.325-4.396-0.578-0.077-1.118-0.27-1.696-0.385-2.429 1.889-4.588 3.277-5.706 3.277z" fill="url(#am)"/>
			
				<linearGradient id="al" x1="259.11" x2="275.8" y1="281.9" y2="281.9" gradientTransform="matrix(.3855 0 0 -.3855 -8.2737 519.64)" gradientUnits="userSpaceOnUse">
				<stop stop-color="#A11E58" offset="0"/>
				<stop stop-color="#D25682" offset="1"/>
			</linearGradient>
			<path d="m91.683 412.08c0.192 0.386 0.462 0.579 0.848 0.656 1.581 0.192 3.663-0.849 5.437-1.967-0.578-0.192-1.234-0.386-1.773-0.578-1.118 0.655-2.236 1.118-3.085 1.118 0.077-0.077 0.193-0.271 0.271-0.463s0.385-0.578 0.848-1.233c-0.463-0.193-0.925-0.271-1.427-0.463-0.27 0.463-0.578 0.732-0.655 0.849-0.464 0.848-0.657 1.503-0.464 2.081z" fill="url(#al)"/>
			
				<linearGradient id="ak" x1="95.782" x2="102.98" y1="137.1" y2="126.71" gradientTransform="matrix(.3855 0 0 -.3855 -8.2737 519.64)" gradientUnits="userSpaceOnUse">
				<stop stop-color="#AF0759" offset="0"/>
				<stop stop-color="#BB2F67" offset=".2495"/>
				<stop stop-color="#CE5880" offset=".7381"/>
				<stop stop-color="#D8688D" offset="1"/>
			</linearGradient>
			<path d="m42.063 453.95c-1.889 0-9.021 5.167-14.65 9.87-4.588 3.933-12.299 11.065-12.299 15.307 0 2.544 1.427 3.933 3.855 3.933 3.2 0 7.788-3.933 10.987-7.133 6.478-6.478 13.688-16.617 13.688-20.356 0-0.271-0.077-0.733-0.386-1.118-0.269-0.426-0.655-0.503-1.195-0.503zm-0.115 1.581c0 3.084-6.4 12.685-13.147 19.432-4.318 4.318-7.865 6.747-9.947 6.747-1.696 0-2.429-0.732-2.429-2.545 0-6.284 22.901-23.749 25.523-23.749h0.077c0.115 0.038-0.077 0.038-0.077 0.115z" fill="url(#ak)"/>
			
				<linearGradient id="aj" x1="167.27" x2="196.56" y1="295.75" y2="273.29" gradientTransform="matrix(.3855 0 0 -.3855 -8.2737 519.64)" gradientUnits="userSpaceOnUse">
				<stop stop-color="#A11E58" offset="0"/>
				<stop stop-color="#AF3665" offset=".2495"/>
				<stop stop-color="#CB5A80" offset=".7381"/>
				<stop stop-color="#D8688D" offset="1"/>
			</linearGradient>
			<path d="m54.516 422.3c5.898 0 15.962-7.788 26.179-17.272-0.463-0.193-1.041-0.386-1.504-0.579-9.021 8.251-19.238 16.425-24.675 16.425-2.352 0-3.739-1.696-3.739-4.511 0-2.43 3.276-10.333 9.562-19.046-0.463-0.193-0.926-0.386-1.312-0.579-6.399 9.022-9.677 17.002-9.677 19.625 0 4.433 2.814 5.937 5.166 5.937z" fill="url(#aj)"/>
			
				<linearGradient id="c" x1="145.88" x2="174.06" y1="185.46" y2="202.48" gradientTransform="matrix(.3855 0 0 -.3855 -8.2737 519.64)" gradientUnits="userSpaceOnUse">
				<stop stop-color="#D8688D" offset="0"/>
				<stop stop-color="#CA517B" offset=".2495"/>
				<stop stop-color="#B72462" offset=".7381"/>
				<stop stop-color="#AF0759" offset="1"/>
			</linearGradient>
			<path d="m1.426 484.79c0-14.997 23.635-29.455 57.138-49.735l-0.732-1.426c-33.889 20.472-57.832 36.164-57.832 51.084h1.426v0.077z" fill="url(#c)"/>
			
				<linearGradient id="i" x1="138.22" x2="145.08" y1="258.68" y2="249.18" gradientTransform="matrix(.3855 0 0 -.3855 -8.2737 519.64)" gradientUnits="userSpaceOnUse">
				<stop stop-color="#D8688D" offset="0"/>
				<stop stop-color="#CA517B" offset=".2495"/>
				<stop stop-color="#B72462" offset=".7381"/>
				<stop stop-color="#AF0759" offset="1"/>
			</linearGradient>
			<path d="m41.948 431.7c-3.008 0-13.031-1.312-13.031-10.41 0-7.056 4.78-17.813 16.616-30.304-0.462-0.193-0.848-0.386-1.233-0.655-11.913 12.685-16.81 23.634-16.81 30.959 0 7.519 5.552 11.836 14.458 11.836v-1.426z" fill="url(#i)"/>
			<path d="m58.564 435.44c3.085-1.966 6.94-6.747 6.4-8.713-0.192-0.578-0.732-0.926-1.427-0.926-0.925 0-2.352 0.578-3.933 1.427-3.199 1.696-8.559 4.511-17.542 4.511v1.427c9.021 0 14.844-2.892 18.198-4.588 1.311-0.732 2.621-1.312 3.199-1.312 0.077 0 0.193 0.077 0.193 0.193 0 1.041-2.545 4.896-5.706 6.939" fill="#AF0759"/>
			
				<linearGradient id="e" x1="299.04" x2="286.69" y1="250.81" y2="255.99" gradientTransform="matrix(.3855 0 0 -.3855 -8.2737 519.64)" gradientUnits="userSpaceOnUse">
				<stop stop-color="#A11E58" offset="0"/>
				<stop stop-color="#B84B71" offset=".4031"/>
				<stop stop-color="#CD6C8B" offset=".7923"/>
				<stop stop-color="#D87997" offset="1"/>
			</linearGradient>
			<path d="m96.194 427.85c0 3.007 3.47 7.055 8.636 7.055 11.451 0 19.701-8.25 26.371-15.498-0.578-0.077-1.041-0.271-1.58-0.386-6.4 6.862-14.266 14.458-24.791 14.458-4.703 0-7.21-2.622-7.21-5.629h-1.426z" fill="url(#e)"/>
			
				<linearGradient id="j" x1="91.472" x2="103.14" y1="200.76" y2="194.33" gradientTransform="matrix(.3855 0 0 -.3855 -8.2737 519.64)" gradientUnits="userSpaceOnUse">
				<stop stop-color="#D8688D" offset="0"/>
				<stop stop-color="#C5527A" offset=".2495"/>
				<stop stop-color="#AA2E60" offset=".7381"/>
				<stop stop-color="#A11E58" offset="1"/>
			</linearGradient>
			<path d="m0 484.79c0 9.021 8.058 8.443 11.913 8.443 2.622 0 9.87-0.655 20.935-8.443 13.996-9.87 28.801-26.834 44.184-50.66 1.312-1.967 3.2-3.277 5.359-4.704l1.696-1.118 0.655-0.462c8.714-6.285 11.181-7.519 11.913-7.711 0.656-0.077 0.733 0.077 0.849 0.077l1.041-1.041c-0.463-0.463-0.849-0.578-1.773-0.578-1.311 0-4.896 2.235-12.762 7.864l-0.655 0.463-1.696 1.118c-2.159 1.504-4.318 2.892-5.706 5.166-36.049 55.942-59.683 58.372-64.001 58.372-6.284 0-10.525-1.041-10.525-7.056h-1.427v0.27z" fill="url(#j)"/>
			
				<linearGradient id="d" x1="427.4" x2="405.17" y1="236.61" y2="238.23" gradientTransform="matrix(.3855 0 0 -.3855 -8.2737 519.64)" gradientUnits="userSpaceOnUse">
				<stop stop-color="#A11E58" offset="0"/>
				<stop stop-color="#B84B71" offset=".4031"/>
				<stop stop-color="#CD6C8B" offset=".7923"/>
				<stop stop-color="#D87997" offset="1"/>
			</linearGradient>
			<path d="m156.15 432.82c-7.981 0-12.184-3.548-12.184-10.796v-0.192c0-0.077-0.578-0.193-1.041-0.271 0 0.193 0.192 0.386 0.192 0.463 0 7.98 4.704 12.184 13.34 12.184 6.4 0 12.3-3.547 17.272-8.637-0.578-0.077-1.426-0.077-1.966-0.192-4.163 4.048-9.6 7.441-15.613 7.441z" fill="url(#d)"/>
			
				<linearGradient id="g" x1="521.17" x2="507.7" y1="229.74" y2="245.25" gradientTransform="matrix(.3855 0 0 -.3855 -8.2737 519.64)" gradientUnits="userSpaceOnUse">
				<stop stop-color="#A11E58" offset="0"/>
				<stop stop-color="#AF3665" offset=".2495"/>
				<stop stop-color="#CB5A80" offset=".7381"/>
				<stop stop-color="#D8688D" offset="1"/>
			</linearGradient>
			<path d="m197.36 430.47c-0.462 0.655-0.925 0.386-1.117 0.386h-14.343s0 0.578 0.077 0.463v0.27l2.429-3.47c0.463-0.655 0.926-1.311 1.312-1.966h-1.697c-0.27 0.462-0.655 0.925-0.925 1.426l-2.352 3.547c-0.077 0.193-0.463 0.656-0.463 1.118 0 0.193 0 0.579 0.077 0.655 0.192 0.271 0.578 0.926 1.427 0.926h14.342c0.849 0 1.581-0.732 2.352-1.773 0.193-0.27 1.696-2.622 3.855-5.898-0.578 0-1.118-0.271-1.696-0.271-1.774 2.621-3.085 4.394-3.278 4.587z" fill="url(#g)"/>
			
				<linearGradient id="f" x1="620.86" x2="615.6" y1="222.84" y2="228.09" gradientTransform="matrix(.3855 0 0 -.3855 -8.2737 519.64)" gradientUnits="userSpaceOnUse">
				<stop stop-color="#BF3E73" offset="0"/>
				<stop stop-color="#C24276" offset=".416"/>
				<stop stop-color="#CC4F7F" offset=".8464"/>
				<stop stop-color="#D15584" offset="1"/>
			</linearGradient>
			<path d="m230.86 433.67s-2.892-0.578-4.048-1.773c-1.89-2.082-1.427-5.437-1.427-7.865-0.463 0.077-0.578 0.077-0.578 0.193v0.076c0 2.892-0.655 6.285 1.427 8.56 1.427 1.504 4.511 2.236 4.511 2.236v-1.427h0.115z" fill="url(#f)"/>
			
				<linearGradient id="h" x1="275.76" x2="273.29" y1="241.11" y2="254.97" gradientTransform="matrix(.3855 0 0 -.3855 -8.2737 519.64)" gradientUnits="userSpaceOnUse">
				<stop stop-color="#D87997" offset="0"/>
				<stop stop-color="#BB5175" offset=".4031"/>
				<stop stop-color="#A82E5F" offset=".7923"/>
				<stop stop-color="#A11E58" offset="1"/>
			</linearGradient>
			<path d="m97.697 427.85c0-3.008 0.463-3.394 0.732-4.588 0.193-0.733 0.386-1.312 0.463-1.89v-0.463c0-0.578 0-1.118-0.463-1.58l-0.925 0.925c0.077 0.077 0.077 0.27 0.077 0.463 0 0.192-0.077 0.386-0.077 0.578-0.077 0.192-0.192 0.849-0.386 1.504-0.386 1.233-0.848 1.966-0.848 4.974h1.426v0.077z" fill="url(#h)"/>
			
				<linearGradient id="b" x1="637.31" x2="681.66" y1="160.13" y2="215.04" gradientTransform="matrix(.3855 0 0 -.3855 -8.2737 519.64)" gradientUnits="userSpaceOnUse">
				<stop stop-color="#D87997" offset="0"/>
				<stop stop-color="#BB5175" offset=".4031"/>
				<stop stop-color="#A82E5F" offset=".7923"/>
				<stop stop-color="#A11E58" offset="1"/>
			</linearGradient>
			<path d="m215.21 490.46c-0.656-0.926-1.041-2.082-1.041-3.663 0-3.47 5.05-9.484 15.306-21.475 3.855-4.511 8.174-9.677 13.34-15.962 6.939-8.366 11.644-14.65 14.844-19.238l-1.504-0.386c-3.084 4.511-7.711 10.603-14.458 18.66-5.166 6.284-9.484 11.451-13.34 15.962-10.68 12.685-15.576 18.391-15.576 22.438 0 2.082 0.656 3.547 1.581 4.781l0.848-1.117z" fill="url(#b)"/>
			
				<linearGradient id="k" x1="622.31" x2="632.42" y1="190.35" y2="186.84" gradientTransform="matrix(.3855 0 0 -.3855 -8.2737 519.64)" gradientUnits="userSpaceOnUse">
				<stop stop-color="#D87997" offset="0"/>
				<stop stop-color="#BB5175" offset=".4031"/>
				<stop stop-color="#A82E5F" offset=".7923"/>
				<stop stop-color="#A11E58" offset="1"/>
			</linearGradient>
			<path d="m214.25 491.65c1.58 1.966 3.933 2.814 5.436 2.814 6.94 0 17.735-11.644 31.268-33.581 7.402-12.029 13.031-22.131 18.121-31.075 4.896-8.636 7.402-13.532 11.373-19.315-0.732 0.386-1.58 0.655-2.352 1.041-3.547 5.552-5.821 9.87-10.217 17.657-4.974 8.906-10.68 18.969-18.121 30.96-17.657 28.607-26.371 32.925-30.033 32.925-1.041 0-3.2-0.655-4.511-2.621l-0.964 1.195z" fill="url(#k)"/>
			
				<linearGradient id="a" x1="620.26" x2="706.66" y1="242.74" y2="242.74" gradientTransform="matrix(.3855 0 0 -.3855 -8.2737 519.64)" gradientUnits="userSpaceOnUse">
				<stop stop-color="#BF3E73" offset="0"/>
				<stop stop-color="#AC2B62" offset=".516"/>
				<stop stop-color="#A11E58" offset="1"/>
			</linearGradient>
			<path d="m257.5 430.2c6.554-9.484 6.67-12.029 6.67-12.029 0-0.27 0-0.848-0.386-1.118s-0.925-0.27-1.041-0.192c-0.27 0.077-1.233 0.192-2.892 1.696-4.78 4.241-17.002 15.306-28.993 15.306v1.427c12.029 0 24.945-11.373 29.957-15.576 0.463-0.385 1.311-0.732 1.581-1.041-0.271 0.926-1.427 4.049-6.478 11.374l1.582 0.153z" fill="url(#a)"/>
			
				<linearGradient id="ai" x1="524.98" x2="530.57" y1="307.12" y2="302.73" gradientTransform="matrix(.3855 0 0 -.3855 -8.2737 519.64)" gradientUnits="userSpaceOnUse">
				<stop stop-color="#6BAE44" offset="0"/>
				<stop stop-color="#9BC057" offset="1"/>
			</linearGradient>
			<path d="m197.09 390.76-0.732-0.077c-1.773-0.192-4.396-0.462-5.552-0.462-1.311 0-2.159 0.848-2.159 2.159 0 3.084-1.581 8.713-4.396 14.843 0.579-0.077 1.118-0.192 1.696-0.27 2.622-5.899 4.126-11.451 4.126-14.651 0-0.579 0.192-0.733 0.732-0.733 1.041 0 3.739 0.27 5.359 0.463l0.655 0.077c1.118 0.077 3.2 1.041 3.2 3.855 0 1.889-1.312 5.243-3.394 9.099 0.579-0.077 1.118-0.27 1.773-0.386 1.773-3.662 3.008-6.862 3.008-8.713 0.08-3.199-2.157-5.011-4.316-5.204z" fill="url(#ai)"/>
			
				<linearGradient id="ah" x1="459.62" x2="470.41" y1="384.84" y2="388.84" gradientTransform="matrix(.3855 0 0 -.3855 -8.2737 519.64)" gradientUnits="userSpaceOnUse">
				<stop stop-color="#6BAE44" offset="0"/>
				<stop stop-color="#9BC057" offset="1"/>
			</linearGradient>
			<path d="m157.76 359.14c-3.663 0-6.092 2.352-6.092 5.898 0 10.988 21.32 19.162 26.949 19.162 1.89 0 2.159-1.118 2.159-1.773-0.038-1.427-7.44-23.287-23.016-23.287zm20.819 23.556c-4.974 0-25.446-7.981-25.446-17.735 0-2.737 1.773-4.395 4.588-4.395 14.188 0 21.476 20.357 21.591 21.783 0.038 0.154 0.038 0.347-0.733 0.347z" fill="url(#ah)"/>
			
				<linearGradient id="ag" x1="392.47" x2="397.45" y1="287.8" y2="285.13" gradientTransform="matrix(.3855 0 0 -.3855 -8.2737 519.64)" gradientUnits="userSpaceOnUse">
				<stop stop-color="#6BAE44" offset="0"/>
				<stop stop-color="#7DB449" offset=".4"/>
				<stop stop-color="#9BC057" offset="1"/>
			</linearGradient>
			<path d="m144.62 407.3c-1.696 0-3.47 0.732-5.243 2.082 0.849 0.077 1.696 0.077 2.545 0.077 0.925-0.463 1.889-0.732 2.737-0.732s0.848 0.27 0.848 0.462c0 0.077 0 0.193-0.077 0.386h1.427v-0.386c0-0.385-0.077-1.889-2.237-1.889z" fill="url(#ag)"/>
			
				<linearGradient id="ae" x1="475.3" x2="481.69" y1="305.79" y2="302.59" gradientTransform="matrix(.3855 0 0 -.3855 -8.2737 519.64)" gradientUnits="userSpaceOnUse">
				<stop stop-color="#6BAE44" offset="0"/>
				<stop stop-color="#9BC057" offset="1"/>
			</linearGradient>
			<path d="m171.64 399.97c3.277-1.967 5.244-4.048 5.244-5.552 0-0.848-0.732-1.581-1.504-2.352-0.386-0.463-1.041-1.041-1.041-1.311-0.077-0.193 0-0.385 0.077-0.462 0.192-0.193 0.849-0.27 1.967 0l1.426 0.385c2.737 0.656 3.547 0.925 3.547 2.236 0.077 1.696-1.966 8.906-5.629 15.576 0.579-0.077 1.118-0.077 1.696-0.193 3.471-6.477 5.437-13.339 5.359-15.383-0.077-2.544-2.236-3.007-4.703-3.547l-1.427-0.27c-1.967-0.462-2.892-0.077-3.393 0.386-0.463 0.462-0.656 1.041-0.463 1.773 0.192 0.655 0.732 1.311 1.427 1.966 0.385 0.462 1.118 1.118 1.118 1.503 0 0.579-1.234 2.236-4.589 4.241-2.081 1.234-6.284 5.899-9.214 10.603 0.578 0 1.118-0.077 1.773-0.077 2.893-4.472 6.555-8.481 8.329-9.522z" fill="url(#ae)"/>
			
				<linearGradient id="ad" x1="299.57" x2="286.08" y1="325.32" y2="328.69" gradientTransform="matrix(.3855 0 0 -.3855 -8.2737 519.64)" gradientUnits="userSpaceOnUse">
				<stop stop-color="#6BAE44" offset="0"/>
				<stop stop-color="#73B046" offset=".2657"/>
				<stop stop-color="#87B84D" offset=".6704"/>
				<stop stop-color="#9BC057" offset="1"/>
			</linearGradient>
			<path d="m112.42 385.9c0-3.007-1.89-2.892-3.74-2.892-1.427 0-7.711 0.733-12.568 5.437l-2.622 2.544c-2.236 2.352-5.629 5.629-9.484 9.369 0.578 0.077 1.041 0.27 1.581 0.385 3.007-2.892 6.092-5.898 8.906-8.829l2.621-2.544c4.511-4.318 10.41-4.896 11.644-4.896 1.427 0 2.352 1.503 2.352 1.503h1.312v-0.077z" fill="url(#ad)"/>
			
				<linearGradient id="ac" x1="273.16" x2="313.02" y1="323.63" y2="323.63" gradientTransform="matrix(.3855 0 0 -.3855 -8.2737 519.64)" gradientUnits="userSpaceOnUse">
				<stop stop-color="#5D9541" offset=".0934"/>
				<stop stop-color="#6BAE44" offset=".8297"/>
			</linearGradient>
			<path d="m111.04 385.9s-1.118 1.311-2.621 3.084l-0.578 0.386c-1.427 1.581-6.747 8.713-10.68 14.188 0.462 0.077 1.041 0.193 1.503 0.271 3.933-5.437 8.906-12.184 10.333-13.687l0.578-0.193c2.082-2.352 3.008-4.048 3.008-4.048h-1.543z" fill="url(#ac)"/>
			
				<linearGradient id="ab" x1="181.16" x2="252.56" y1="357.08" y2="357.08" gradientTransform="matrix(.3855 0 0 -.3855 -8.2737 519.64)" gradientUnits="userSpaceOnUse">
				<stop stop-color="#5D9541" offset=".0385"/>
				<stop stop-color="#5D9541" offset=".0396"/>
				<stop stop-color="#619A41" offset=".271"/>
				<stop stop-color="#67A243" offset=".8309"/>
			</linearGradient>
			<path d="m88.483 370.21c-5.629 3.084-11.451 7.132-16.887 12.183-3.855 3.47-7.133 7.209-9.947 10.873 0.463 0.192 0.925 0.27 1.427 0.462 2.737-3.47 5.898-7.055 9.484-10.333 5.436-4.974 11.064-9.022 16.616-12.029l-0.693-1.156z" fill="url(#ab)"/>
			
				<linearGradient id="aa" x1="288.47" x2="404.57" y1="327.54" y2="327.54" gradientTransform="matrix(.3855 0 0 -.3855 -8.2737 519.64)" gradientUnits="userSpaceOnUse">
				<stop stop-color="#9BC057" offset="0"/>
				<stop stop-color="#99BE56" offset=".3689"/>
				<stop stop-color="#91B952" offset=".5802"/>
				<stop stop-color="#83B04D" offset=".7517"/>
				<stop stop-color="#71A546" offset=".9009"/>
				<stop stop-color="#5F9C43" offset="1"/>
			</linearGradient>
			<path d="m146.7 399.12c-0.192-0.077-0.27-0.386-0.27-0.655 0-0.192 0.077-0.655 0.27-1.118 0.386-1.311 0.926-3.277 0.926-6.014 0-2.082-0.386-3.855-1.041-5.244-1.427-2.892-4.126-4.511-7.981-4.511-7.402 0-15.769 3.855-35.739 23.171 0.578 0.077 1.118 0.193 1.696 0.386 19.046-18.391 27.026-22.053 33.966-22.053 3.008 0 5.167 1.041 6.4 3.084 0.849 1.311 1.233 3.084 1.233 5.359 0 2.429-0.578 4.318-0.925 5.552-0.193 0.655-0.27 1.118-0.27 1.504 0 0.655 0.27 1.311 0.732 1.773l1.003-1.234z" fill="url(#aa)"/>
			
				<linearGradient id="z" x1="411.49" x2="438.59" y1="314.15" y2="338.09" gradientTransform="matrix(.3855 0 0 -.3855 -8.2737 519.64)" gradientUnits="userSpaceOnUse">
				<stop stop-color="#5F9C43" offset=".011"/>
				<stop stop-color="#619D43" offset=".0224"/>
				<stop stop-color="#78A547" offset=".1941"/>
				<stop stop-color="#85AA4A" offset=".3568"/>
				<stop stop-color="#8AAC4B" offset=".5"/>
				<stop stop-color="#86AB4A" offset=".6667"/>
				<stop stop-color="#7BA847" offset=".8342"/>
				<stop stop-color="#67A243" offset="1"/>
			</linearGradient>
			<path d="m145.85 400.16c0.462 0.386 1.041 0.578 1.58 0.463 8.251-1.427 17.272-13.417 17.272-14.728l-1.581 0.193c-1.233 2.082-8.905 11.913-15.961 13.147-0.193 0-0.271 0-0.463-0.077l-0.847 1.002z" fill="url(#z)"/>
			
				<linearGradient id="y" x1="618.59" x2="558.2" y1="336.73" y2="355.14" gradientTransform="matrix(.3855 0 0 -.3855 -8.2737 519.64)" gradientUnits="userSpaceOnUse">
				<stop stop-color="#5F9C43" offset="0"/>
				<stop stop-color="#70A546" offset=".1009"/>
				<stop stop-color="#9BC057" offset=".2986"/>
				<stop stop-color="#639F42" offset=".6648"/>
				<stop stop-color="#85B24D" offset=".876"/>
				<stop stop-color="#9BC057" offset="1"/>
			</linearGradient>
			<path d="m232.37 383.16c-0.463-0.655-1.311-0.925-2.545-0.925-2.737 0-6.67 3.663-9.869 6.67-1.118 1.118-2.622 2.429-3.2 2.737-0.386-0.27-1.118-1.773-1.581-2.737-0.463-1.041-1.041-2.159-1.581-2.892-1.966-2.622-4.588-3.393-12.183-3.393-1.89 0-3.393 0.077-4.781 0.193l0.077 1.426c1.427-0.077 2.814-0.193 4.704-0.193 7.133 0 9.368 0.579 11.065 2.814 0.462 0.656 0.925 1.697 1.426 2.622 0.926 2.082 1.696 3.663 2.814 3.663 0.732 0 1.581-0.732 4.126-3.084 2.621-2.429 6.67-6.284 8.829-6.284 1.503 0 1.58 0.385 1.58 1.311 0 0.656-0.463 1.504-0.925 2.544-1.041 1.89-2.43 4.704-2.737 9.099 0.462-0.193 0.925-0.386 1.426-0.578 0.271-3.663 1.504-6.092 2.43-7.865 0.655-1.234 1.118-2.159 1.118-3.2 0.27-0.887 0.077-1.465-0.193-1.928z" fill="url(#y)"/>
			
				<linearGradient id="x" x1="505.62" x2="531.92" y1="354.54" y2="354.54" gradientTransform="matrix(.3855 0 0 -.3855 -8.2737 519.64)" gradientUnits="userSpaceOnUse">
				<stop stop-color="#6BAE44" offset="0"/>
				<stop stop-color="#74B146" offset=".2785"/>
				<stop stop-color="#8BB94F" offset=".7334"/>
				<stop stop-color="#9BC057" offset="1"/>
			</linearGradient>
			<path d="m196.7 382.7-4.125 0.192c-3.74 0-4.125-0.192-4.588-1.311l-1.311 0.578c0.925 2.082 2.352 2.159 5.898 2.159l4.241-0.193-0.115-1.425z" fill="url(#x)"/>
			
				<linearGradient id="w" x1="353.39" x2="365.73" y1="312.64" y2="296.31" gradientTransform="matrix(.3855 0 0 -.3855 -8.2737 519.64)" gradientUnits="userSpaceOnUse">
				<stop stop-color="#5F9C43" offset="0"/>
				<stop stop-color="#6FA446" offset=".1041"/>
				<stop stop-color="#8FB751" offset=".3568"/>
				<stop stop-color="#9BC057" offset=".4945"/>
			</linearGradient>
			<path d="m139.72 393.49c-0.077-0.925-0.848-1.966-2.892-1.889-2.544 0.077-10.332 6.091-16.347 12.569-0.27 0.27-0.463 0.578-0.732 0.849-0.655 0.732-1.312 1.503-1.967 2.235 0.579 0.077 1.118 0.193 1.696 0.193 0.386-0.463 0.849-1.041 1.312-1.504 0.462-0.578 1.041-1.118 1.503-1.581 6.015-6.284 12.839-11.257 14.535-11.257 0.849 0 1.427 0.193 1.427 0.578v0.193c0 1.696-2.236 3.2-4.241 4.396l-1.503 1.041-0.077 0.077c-2.43 1.773-3.663 2.621-3.663 4.317 0 0.193 0 0.463 0.077 0.655 0.077 0.656 0.463 1.041 0.849 1.427 0.27 0.271 0.578 1.118 0.732 1.118h1.426c-0.192 0-0.732-1.696-1.233-2.159-0.27-0.27-0.386-0.463-0.463-0.655-0.192-1.118 0.193-1.504 3.008-3.547l0.077-0.077 1.426-1.041c2.544-1.542 5.243-3.316 5.05-5.938z" fill="url(#w)"/>
			
				<linearGradient id="v" x1="347.51" x2="359.76" y1="308.38" y2="292.17" gradientTransform="matrix(.3855 0 0 -.3855 -8.2737 519.64)" gradientUnits="userSpaceOnUse">
				<stop stop-color="#6BAE44" offset="0"/>
				<stop stop-color="#9BC057" offset="1"/>
			</linearGradient>
			<path d="m130.54 407.03c0.077 0 0.077 0.077 0 0 0 0.385-0.192 0.925-0.578 1.696 0.463 0 1.041 0.077 1.504 0.077 0.385-0.732 0.462-1.427 0.462-1.967v-0.192h-1.426c0.038 0.193 0.038 0.27 0.038 0.386z" fill="url(#v)"/>
			
				<linearGradient id="t" x1="409.28" x2="401.1" y1="424.71" y2="434.46" gradientTransform="matrix(.3855 0 0 -.3855 -8.2737 519.64)" gradientUnits="userSpaceOnUse">
				<stop stop-color="#6BAE44" offset="0"/>
				<stop stop-color="#86B751" offset=".3964"/>
				<stop stop-color="#A4C567" offset=".8132"/>
			</linearGradient>
			<path d="m187.88 381.31c-2.892-7.132-14.188-30.227-36.588-30.227-5.629 0-9.484 2.159-11.181 6.092-0.578 1.311-0.848 2.814-0.848 4.395 0 6.207 3.084 17.542 23.557 24.405l0.27 0.077 1.581-0.193c0-0.848-0.732-1.041-1.234-1.233l-0.192-0.077c-19.624-6.554-22.516-17.272-22.516-23.094 0-1.581 0.27-2.892 0.732-3.933 1.966-4.511 7.21-5.05 9.754-5.05 21.591 0 32.463 22.438 35.277 29.378l0.077 0.27 1.311-0.578v-0.232z" fill="url(#t)"/>
			
				<linearGradient id="s" x1="312.07" x2="309.58" y1="412" y2="417.79" gradientTransform="matrix(.3855 0 0 -.3855 -8.2737 519.64)" gradientUnits="userSpaceOnUse">
				<stop stop-color="#67A243" offset="0"/>
				<stop stop-color="#68A343" offset=".5069"/>
				<stop stop-color="#6FA644" offset=".6894"/>
				<stop stop-color="#7BAC48" offset=".8195"/>
				<stop stop-color="#8AB54F" offset=".924"/>
				<stop stop-color="#9BC057" offset="1"/>
			</linearGradient>
			<path d="m134.21 348.54c-0.077-0.27 0-0.463-0.386-0.579-0.655-0.193-1.967-0.385-1.967-0.462v1.426c0 0.077 0.656 0.193 1.041 0.193-2.814 4.974-7.788 13.61-8.058 13.995l-0.077 0.077h-0.192l-0.386-0.077c-4.125-0.655-7.519-0.925-10.217-0.925-6.478 0-15.769 2.545-25.446 7.865l0.655 1.234c9.484-5.244 18.507-7.711 24.791-7.711 2.621 0 6.015 0.27 9.947 0.925l0.385 0.077c0.386 0.077 0.656 0 0.926-0.077s0.463-0.386 0.732-0.655c0.27-0.579 7.865-13.88 8.174-14.458 0.155-0.193 0.155-0.578 0.078-0.848z" fill="url(#s)"/>
			<path d="m66.159 373.22c26.563-19.316 52.203-24.405 62.959-24.405 1.041 0 2.737 0 2.737 0.077v-1.388c0-0.077-1.889-0.077-2.737-0.077-10.987 0-36.896 5.243-63.73 24.675-7.402 5.436-13.687 10.68-18.66 15.769 0.463 0.193 0.926 0.386 1.427 0.579 4.973-4.898 10.872-9.948 18.004-15.23z" fill="#9BC057"/>
		
		<g fill="#211F1F">
			<path d="m349.77 393.03h6.399v30.111h-6.399v-30.111z"/>
			<path d="m362.26 393.03h7.21l17.928 22.631h0.077v-22.631h6.092v30.111h-7.133l-18.121-22.631h-0.077v22.631h-6.091v-30.111h0.115z"/>
			<path d="m399.81 393.03h25.061v4.704h-18.775v7.595h17.734v4.704h-17.734v13.031h-6.4v-30.034h0.114z"/>
			<path d="m427.03 408.03c0-8.443 4.974-15.961 17.735-15.961s17.734 7.403 17.734 15.961c0 8.443-4.974 15.962-17.734 15.962-12.762 0-17.735-7.402-17.735-15.962zm28.877 0c0-6.67-4.048-11.181-11.181-11.181s-11.181 4.588-11.181 11.181c0 6.67 4.048 11.181 11.181 11.181 7.056 0 11.181-4.511 11.181-11.181z"/>
			<path d="m475.14 397.74h-11.335v-4.704h28.992v4.704h-11.373v25.446h-6.4v-25.446h0.116z"/>
			<path d="m495.89 393.03h26.178v4.704h-19.816v7.595h19.046v4.704h-19.046v8.366h20.164v4.704h-26.564l0.038-30.073z"/>
			<path d="m552.02 404.1c-0.655-4.588-4.395-7.209-9.677-7.209-5.822 0-10.14 3.855-10.14 11.72 0 6.284 4.317 10.603 10.603 10.603 6.554 0 8.713-4.511 9.291-7.595h6.863c-0.849 6.014-4.781 12.376-17.272 12.376-10.873 0-16.039-7.402-16.039-15.962 0-8.443 4.974-15.961 16.81-15.961 10.41 0 15.769 5.551 16.502 12.029h-6.941z"/>
			<path d="m563.94 393.03h6.285v11.72h18.66v-11.72h6.399v30.111h-6.399v-13.687h-18.66v13.687h-6.285v-30.111z"/>
		</g>
		<rect x="326.86" y="382.89" width="3.007" height="50.969" fill="#211F1F"/>
	

</svg>
